<svg width="62" height="50" viewBox="0 0 62 50" fill="none" xmlns="http://www.w3.org/2000/svg">
<path d="M0.371094 32.92C0.371094 31.7734 0.445658 30.4835 0.594786 29.0503C1.93694 18.731 7.00731 9.12826 15.8059 0.242188L20.5034 3.46697C20.3543 3.6103 20.1306 3.82528 19.8324 4.11193C14.4637 9.55824 11.7794 14.2879 11.7794 18.301C11.9285 20.4508 13.7181 22.0274 17.148 23.0307C17.8937 23.174 18.7139 23.389 19.6087 23.6756C25.2755 25.9688 28.109 29.9819 28.109 35.7148C28.109 37.578 27.7362 39.4412 26.9905 41.3045C24.6045 46.4641 20.578 49.0439 14.9111 49.0439C13.4198 49.0439 11.9285 48.829 10.4373 48.399C3.72648 46.5358 0.371094 41.3761 0.371094 32.92ZM33.925 32.92C33.925 31.6301 33.9996 30.3402 34.1487 29.0503C35.4908 18.731 40.6358 9.12826 49.5835 0.242188L54.281 3.46697C54.1319 3.6103 53.9082 3.82528 53.61 4.11193C48.0922 9.70156 45.3333 14.4312 45.3333 18.301C45.4825 20.4508 47.3466 22.0274 50.9256 23.0307C51.6713 23.174 52.4915 23.389 53.3863 23.6756C59.0531 25.9688 61.8866 29.9819 61.8866 35.7148C61.8866 37.7214 61.4392 39.7279 60.5444 41.7344C58.1584 46.6074 54.2065 49.0439 48.6887 49.0439C46.8992 49.0439 45.1842 48.7573 43.5438 48.184C37.1313 46.1775 33.925 41.0895 33.925 32.92Z" fill="#DA3535"/>
</svg>
