<svg width="40" height="40" viewBox="0 0 40 40" fill="none" xmlns="http://www.w3.org/2000/svg">
<rect width="40" height="40" rx="20" fill="white"/>
<g clip-path="url(#clip0_229_5844)">
<path d="M30.9399 16.8771C30.8912 15.8126 30.7221 15.0857 30.4749 14.4497C30.2239 13.7824 29.8303 13.178 29.3215 12.6785C28.8221 12.1697 28.2176 11.7759 27.5503 11.5247C26.9142 11.2777 26.1874 11.1088 25.1229 11.0604C24.0565 11.0116 23.7158 11 21 11C18.2842 11 17.9435 11.0116 16.8771 11.0601C15.8126 11.1088 15.0858 11.2779 14.4497 11.5251C13.7824 11.7761 13.178 12.1697 12.6785 12.6785C12.1697 13.1779 11.7759 13.7823 11.5247 14.4496C11.2777 15.0857 11.1088 15.8126 11.0604 16.8769C11.0116 17.9435 11 18.2841 11 20.9998C11 23.7158 11.0116 24.0565 11.0604 25.1229C11.1089 26.1872 11.278 26.9142 11.5252 27.5503C11.7762 28.2174 12.1699 28.822 12.6786 29.3214C13.178 29.8301 13.7826 30.2238 14.4499 30.4748C15.0858 30.7221 15.8128 30.8911 16.8772 30.9397C17.9438 30.9884 18.2844 30.9998 21.0002 30.9998C23.7159 30.9998 24.0566 30.9884 25.1231 30.9397C26.1875 30.8911 26.9143 30.7221 27.5504 30.4748C28.8937 29.9554 29.9555 28.8935 30.4749 27.5503C30.7223 26.9142 30.8912 26.1872 30.9399 25.1229C30.9884 24.0563 31 23.7158 31 21C31 18.2841 30.9884 17.9435 30.9399 16.8771ZM29.1398 25.041C29.0954 26.016 28.9324 26.5455 28.7956 26.8978C28.4591 27.77 27.7699 28.4593 26.8977 28.7957C26.5453 28.9326 26.0159 29.0956 25.0408 29.14C23.9866 29.1882 23.6703 29.1982 21 29.1982C18.3296 29.1982 18.0134 29.1882 16.959 29.14C15.9841 29.0956 15.4547 28.9326 15.1022 28.7957C14.6679 28.6353 14.275 28.3798 13.9524 28.0476C13.6202 27.725 13.3647 27.3322 13.2043 26.8978C13.0674 26.5455 12.9044 26.016 12.86 25.041C12.812 23.9866 12.8018 23.6703 12.8018 21.0002C12.8018 18.3299 12.812 18.0137 12.86 16.9592C12.9046 15.9841 13.0674 15.4547 13.2043 15.1023C13.3647 14.6679 13.6204 14.275 13.9524 13.9524C14.275 13.6202 14.6679 13.3647 15.1023 13.2044C15.4547 13.0674 15.9841 12.9046 16.9592 12.86C18.0135 12.812 18.3299 12.8018 21 12.8018H20.9998C23.67 12.8018 23.9863 12.812 25.0408 12.8602C26.0159 12.9046 26.5452 13.0676 26.8977 13.2044C27.3319 13.3648 27.7249 13.6204 28.0474 13.9524C28.3796 14.275 28.6352 14.6679 28.7954 15.1023C28.9324 15.4547 29.0954 15.9841 29.1398 16.9592C29.1879 18.0135 29.1981 18.3299 29.1981 21C29.1981 23.6703 29.188 23.9865 29.1398 25.041Z" fill="#2C292F"/>
<path d="M20.9998 15.8647C18.1638 15.8647 15.8647 18.1639 15.8647 20.9999C15.8647 23.8359 18.1638 26.135 20.9998 26.135C23.8359 26.135 26.135 23.8359 26.135 20.9999C26.135 18.1639 23.8359 15.8647 20.9998 15.8647ZM20.9998 24.3332C19.159 24.3331 17.6665 22.8408 17.6667 20.9998C17.6667 19.159 19.159 17.6665 20.9999 17.6665C22.8409 17.6667 24.3332 19.159 24.3332 20.9998C24.3332 22.8408 22.8408 24.3332 20.9998 24.3332Z" fill="#2C292F"/>
<path d="M27.538 15.662C27.538 16.3247 27.0007 16.862 26.338 16.862C25.6752 16.862 25.1379 16.3247 25.1379 15.662C25.1379 14.9992 25.6752 14.4619 26.338 14.4619C27.0007 14.4619 27.538 14.9992 27.538 15.662Z" fill="#2C292F"/>
</g>
<defs>
<clipPath id="clip0_229_5844">
<rect width="20" height="20" fill="white" transform="translate(11 11)"/>
</clipPath>
</defs>
</svg>
