<svg width="48" height="49" viewBox="0 0 48 49" fill="none" xmlns="http://www.w3.org/2000/svg">
<path d="M25.414 33.9623L33.4134 25.9629C33.787 25.5869 33.9967 25.0783 33.9967 24.5482C33.9967 24.0181 33.787 23.5096 33.4134 23.1335L25.414 15.1343C25.0378 14.7648 24.531 14.5589 24.0037 14.5613C23.4765 14.5637 22.9716 14.7742 22.5987 15.147C22.2259 15.5198 22.0154 16.0248 22.013 16.552C22.0107 17.0793 22.2166 17.5861 22.586 17.9623L27.1719 22.5483H16C15.4696 22.5483 14.9609 22.759 14.5858 23.1341C14.2107 23.5091 14 24.0178 14 24.5483C14 25.0787 14.2107 25.5874 14.5858 25.9625C14.9609 26.3376 15.4696 26.5483 16 26.5483H27.1719L22.5859 31.1343C22.2148 31.5101 22.0074 32.0175 22.0091 32.5457C22.0107 33.0739 22.2213 33.58 22.5948 33.9535C22.9683 34.3269 23.4744 34.5375 24.0026 34.5391C24.5308 34.5408 25.0382 34.3334 25.414 33.9623Z" fill="#414141"/>
<path d="M44 24.5483C44 20.5927 42.827 16.7259 40.6294 13.4369C38.4318 10.1479 35.3082 7.58445 31.6537 6.0707C27.9992 4.55694 23.9778 4.16088 20.0982 4.93258C16.2186 5.70429 12.6549 7.6091 9.85788 10.4062C7.06083 13.2032 5.15601 16.7669 4.3843 20.6465C3.6126 24.5261 4.00867 28.5474 5.52242 32.202C7.03617 35.8565 9.59962 38.9801 12.8886 41.1777C16.1776 43.3753 20.0444 44.5483 24 44.5483C29.3025 44.5424 34.3862 42.4334 38.1357 38.6839C41.8851 34.9345 43.9941 29.8508 44 24.5483ZM22.586 33.9623C22.4003 33.7766 22.2529 33.5562 22.1524 33.3136C22.0518 33.0709 22.0001 32.8109 22.0001 32.5482C22.0001 32.2856 22.0518 32.0255 22.1524 31.7829C22.2529 31.5403 22.4003 31.3198 22.586 31.1342L27.1719 26.5483H16C15.4696 26.5483 14.9609 26.3376 14.5858 25.9625C14.2107 25.5874 14 25.0787 14 24.5483C14 24.0179 14.2107 23.5092 14.5858 23.1341C14.9609 22.759 15.4696 22.5483 16 22.5483H27.1719L22.586 17.9623C22.2166 17.5861 22.0107 17.0793 22.0131 16.552C22.0155 16.0248 22.226 15.5199 22.5988 15.147C22.9716 14.7742 23.4765 14.5637 24.0038 14.5613C24.531 14.559 25.0378 14.7649 25.414 15.1343L33.4134 23.1337C33.7871 23.5097 33.9968 24.0183 33.9968 24.5484C33.9968 25.0784 33.7871 25.587 33.4134 25.963L25.414 33.9623C25.2284 34.1481 25.0079 34.2954 24.7653 34.3959C24.5227 34.4965 24.2626 34.5482 24 34.5482C23.7374 34.5482 23.4774 34.4965 23.2347 34.3959C22.9921 34.2954 22.7717 34.1481 22.586 33.9623Z" fill="#EDEDED"/>
</svg>
