<svg width="152" height="154" viewBox="0 0 152 154" fill="none" xmlns="http://www.w3.org/2000/svg">
<path d="M36.2654 79.4962H2V79.9575V85.3609L2.13179 85.9539L2.32947 86.4811L2.59305 87.0082L2.98842 87.4036L3.64737 87.7331L4.30632 87.9308H4.83348H5.82191C18.4737 89.644 21.3731 97.6173 23.35 101.637C25.4586 112.707 21.1095 117.847 17.8148 121.076C17.1295 122.025 17.5292 123.58 17.8148 124.239L29.2805 135.705C30.9674 136.759 32.5313 135.88 33.1024 135.309C34.6312 133.57 37.5174 131.949 38.7694 131.356C42.9339 129.036 48.8513 129.686 51.2894 130.301C57.2463 132.463 60.3609 135.331 61.1736 136.495C65.2591 142.03 65.3909 145.721 65.6545 149.213C66.3134 151.519 67.0383 151.497 68.3562 151.651H83.2484H84.0392L84.6981 151.519L85.3571 151.19L85.7524 150.729L86.1478 150.136L86.4773 149.411V148.291C86.6882 145.707 87.6634 142.514 88.1247 141.24C90.2333 135.23 96.691 131.751 99.6563 130.762C102.292 129.708 105.323 129.752 107.366 129.84C110.661 130.301 111.473 130.697 113.033 131.224C115.405 132.344 116.613 133.135 117.711 133.991L119.095 135.309L119.359 135.573L119.557 135.705L119.886 135.902L120.15 135.968L120.413 136.034L120.743 136.1H121.138H121.467H121.731L121.995 136.034L122.258 135.902L122.522 135.77L122.917 135.573L126.607 131.883L133.922 124.371L134.251 123.975L134.383 123.58L134.581 123.25V122.855V122.394V121.933L134.383 121.471C134.541 121.208 133.702 120.395 133.263 120.022C130.363 116.859 129.067 112.993 128.782 111.455C127.134 103.284 129.836 99.471 131.22 96.9584C133.223 93.321 137.853 90.4348 139.918 89.4463C143.186 88.1285 146.508 87.9308 147.76 87.9967C149.552 87.6804 150 86.3273 150 85.6903V79.628L115.735 80.287C110.99 101.769 104.533 105.327 98.2066 110.467C87.558 117.742 75.3191 117.627 70.5307 116.661C43.5402 112.444 36.4411 90.1273 36.2654 79.4962Z" fill="white" stroke="black" stroke-width="4"/>
<path d="M102.424 79.4962H49.9714C49.9714 85.4004 52.783 91.2694 54.1887 93.4659C67.3677 107.699 73.7815 102.955 83.1825 103.746C99.8407 97.2088 102.951 84.8557 102.424 79.4962Z" fill="white" stroke="black" stroke-width="4"/>
<mask id="path-3-inside-1_229_5826" fill="white">
<rect x="18.6055" y="59.7277" width="114.657" height="14.0876" rx="4"/>
</mask>
<rect x="18.6055" y="59.7277" width="114.657" height="14.0876" rx="4" fill="white" stroke="#DA3535" stroke-width="14.0876" mask="url(#path-3-inside-1_229_5826)"/>
<rect x="23.0864" y="64.4722" width="106.223" height="4.94968" rx="2.47484" fill="white"/>
<path d="M51.3125 30.4606C51.3125 29.5667 51.9058 28.7813 52.7656 28.5368L70.6762 23.4455C71.961 23.0803 73.236 24.0531 73.2229 25.3888L72.9185 56.538C72.9078 57.6349 72.0156 58.5184 70.9186 58.5184H53.3125C52.2079 58.5184 51.3125 57.623 51.3125 56.5184V30.4606Z" fill="#FFFCF9" stroke="#DA3535" stroke-width="4"/>
<path d="M76.0891 30.4606C76.0891 29.5667 76.6824 28.7813 77.5422 28.5368L95.4528 23.4455C96.7376 23.0803 98.0126 24.0531 97.9995 25.3888L97.6951 56.538C97.6844 57.6349 96.7922 58.5184 95.6952 58.5184H78.0891C76.9845 58.5184 76.0891 57.623 76.0891 56.5184V30.4606Z" fill="#FFFCF9" stroke="#DA3535" stroke-width="4"/>
<path d="M100.997 30.4606C100.997 29.5667 101.591 28.7813 102.45 28.5368L120.361 23.4455C121.646 23.0803 122.921 24.0531 122.908 25.3888L122.603 56.538C122.593 57.6349 121.7 58.5184 120.603 58.5184H102.997C101.893 58.5184 100.997 57.623 100.997 56.5184V30.4606Z" fill="#FFFCF9" stroke="#DA3535" stroke-width="4"/>
<path d="M29.5671 4.68585C29.5671 3.58128 30.4626 2.68585 31.5671 2.68585H47.2893C48.3939 2.68585 49.2893 3.58128 49.2893 4.68585V57.441C49.2893 58.5455 48.3939 59.441 47.2893 59.441H31.5671C30.4626 59.441 29.5671 58.5455 29.5671 57.441V4.68585Z" fill="#FFFCF9" stroke="#DA3535" stroke-width="4"/>
<rect x="27.699" y="12.1516" width="21.8771" height="2" fill="#EB9300"/>
</svg>
