<svg width="235" height="180" viewBox="0 0 235 180" fill="none" xmlns="http://www.w3.org/2000/svg">
<path d="M51.193 113.903H24.7607L2.59159 63.5966C2.02315 61.3229 1.90946 56.7754 6.00222 56.7754H83.5937C85.0148 57.628 88.0276 60.186 88.7097 63.5966L98.0889 84.0604C101.215 78.0918 110.538 66.1546 122.816 66.1546H154.364C160.049 67.0073 173.293 71.2706 180.797 81.5024" stroke="black" stroke-width="4" stroke-linecap="round"/>
<path d="M110.026 130.104L116.847 106.229" stroke="black" stroke-width="4" stroke-linecap="round"/>
<path d="M59.7192 131.809V121.577C60.5719 119.588 63.4709 115.097 68.2458 113.051H89.5622C91.5518 103.672 96.0424 84.4015 98.0888 82.3551" stroke="black" stroke-width="4" stroke-linecap="round"/>
<path d="M12.8232 130.957H135.606" stroke="black" stroke-width="4" stroke-linecap="round"/>
<path d="M160.603 28.6377C160.603 43.2568 149.871 54.7754 137.023 54.7754C124.175 54.7754 113.443 43.2568 113.443 28.6377C113.443 14.0186 124.175 2.5 137.023 2.5C149.871 2.5 160.603 14.0186 160.603 28.6377Z" stroke="black" stroke-width="4"/>
<path d="M182.264 92.5869C181.582 91.2227 179.706 90.8816 178.853 90.8816L178.853 90.8817C173.737 92.5869 168.621 94.2923 166.063 98.5555C167.428 101.284 167.2 105.377 166.916 107.082C164.87 113.221 156.968 111.914 153.273 110.493C147.816 112.539 147.02 121.009 147.305 124.988C154.126 125.67 155.831 130.956 155.831 133.514C155.831 140.336 149.863 140.904 147.305 143.746C149.01 154.831 151 155.115 154.126 158.241C160.265 154.831 164.642 156.82 166.063 158.241C169.474 160.288 167.484 167.052 166.063 170.179C168.11 173.589 176.579 176.147 180.558 177C182.605 169.497 188.232 168.189 190.79 168.473C194.883 168.473 198.18 173.589 199.317 176.147C205.456 176.829 211.538 172.452 213.812 170.179L212.959 165.915C212.277 159.776 215.517 157.105 217.223 156.536C219.269 154.49 224.328 156.252 226.602 157.389C232.059 153.978 232.855 146.304 232.57 142.894C228.478 142.212 226.318 139.199 225.749 137.778C224.385 134.367 225.749 130.672 226.602 129.251C227.284 127.205 230.865 125.556 232.57 124.988C233.253 122.941 232.855 121.293 232.57 120.725C230.865 114.756 227.454 110.493 226.602 110.493C225.92 110.493 223.475 111.061 222.339 111.345C219.61 112.027 216.086 109.924 214.665 108.787C214.615 108.787 214.615 108.787 213.812 107.082C213.791 107.037 212.675 104.24 212.959 102.819C214.324 100.772 214.096 97.9871 213.812 96.8502C212.448 95.4859 208.696 93.4396 206.991 92.5869C202.216 90.5405 199.317 91.1658 198.464 91.7342L195.054 97.7028C193.007 99.7492 188.516 99.1239 186.527 98.5555C184.481 97.8734 182.832 94.2922 182.264 92.5869Z" stroke="black" stroke-width="4"/>
<circle cx="189.888" cy="133.515" r="21.8744" stroke="black" stroke-width="4"/>
</svg>
