<svg width="209" height="126" viewBox="0 0 209 126" fill="none" xmlns="http://www.w3.org/2000/svg">
<path d="M51 112V109C51 104.582 54.5817 101 59 101H151C155.418 101 159 104.582 159 109V112C159 116.418 155.418 120 151 120H59C54.5817 120 51 116.418 51 112Z" stroke="black" stroke-width="4" stroke-linecap="round"/>
<path d="M2 122V60.877C3.17522 56.511 7.64108 48.0411 16.1027 49.0889L24.9169 53.0183L56.2072 82.7066H86.6162C89.9949 83.1432 96.7525 85.6755 96.7525 92.3117C97.487 94.9312 97.0169 100.432 89.2604 101.48H52.6816L22.2726 73.1016" stroke="black" stroke-width="4" stroke-linecap="round"/>
<path d="M207 121V59.877C205.825 55.511 201.359 47.0411 192.897 48.0889L184.083 52.0183L152.793 81.7066H122.384C119.005 82.1432 112.248 84.6755 112.248 91.3117C111.513 93.9312 111.983 99.4323 119.74 100.48H156.318L186.727 72.1016" stroke="black" stroke-width="4" stroke-linecap="round"/>
<path d="M37 88V124" stroke="black" stroke-width="4" stroke-linecap="round"/>
<path d="M172 87V123" stroke="black" stroke-width="4" stroke-linecap="round"/>
<path d="M47 27C47 40.6273 37.9307 51 27.5 51C17.0693 51 8 40.6273 8 27C8 13.3727 17.0693 3 27.5 3C37.9307 3 47 13.3727 47 27Z" stroke="black" stroke-width="4"/>
<path d="M162 26C162 39.6273 171.069 50 181.5 50C191.931 50 201 39.6273 201 26C201 12.3727 191.931 2 181.5 2C171.069 2 162 12.3727 162 26Z" stroke="black" stroke-width="4"/>
<rect x="60" y="21" width="88" height="61" rx="10" stroke="black" stroke-width="4"/>
<path d="M147.421 85H60.3889C57.1919 85 54.1426 83.1353 53.3963 80.0267C52.2357 75.1931 53.8725 73.8352 55.1201 73.8352H145.254C146.578 73.8352 147.855 73.3885 149.149 73.1066C151.997 72.4861 153.549 74.6544 154.325 77.526C155.429 81.6094 151.652 85 147.421 85Z" fill="black"/>
<rect x="78.5" y="30.5" width="7" height="7" rx="1.5" stroke="black"/>
<line x1="93" y1="49" x2="131" y2="49" stroke="black" stroke-width="2" stroke-linecap="round"/>
<rect x="78.5" y="44.5" width="7" height="7" rx="1.5" stroke="black"/>
<line x1="93" y1="63" x2="131" y2="63" stroke="black" stroke-width="2" stroke-linecap="round"/>
<rect x="78.5" y="59.5" width="7" height="7" rx="1.5" stroke="black"/>
<line x1="93" y1="34" x2="131" y2="34" stroke="black" stroke-width="2" stroke-linecap="round"/>
</svg>
