<svg width="244" height="203" viewBox="0 0 244 203" fill="none" xmlns="http://www.w3.org/2000/svg">
<path d="M92.5669 166.404C78.4916 140.599 62.345 90.2176 110.361 95.1273C170.38 101.264 130.617 146.286 91.1339 126.441C51.6507 106.596 22.1843 28.5851 127.522 48.0325" stroke="#1A4489" stroke-width="3" stroke-linecap="round"/>
<path fill-rule="evenodd" clip-rule="evenodd" d="M154.907 44.6628C151.041 41.1844 147.809 38.9918 147.139 39.5073C146.473 40.0203 148.548 43.0592 152.002 46.8073C149.36 49.25 148.306 51.9754 149.66 53.2988C151.009 54.6173 154.309 54.1143 157.508 52.2428C161.375 55.7219 164.607 57.9149 165.277 57.3994C165.943 56.8863 163.868 53.8468 160.413 50.0983C163.055 47.6556 164.109 44.9302 162.755 43.6069C161.406 42.2884 158.106 42.7914 154.907 44.6628Z" fill="#DA3535"/>
<path fill-rule="evenodd" clip-rule="evenodd" d="M135.994 57.8629C133.759 55.8518 131.89 54.5841 131.503 54.8822C131.118 55.1788 132.317 56.9358 134.315 59.1028C132.787 60.5151 132.177 62.0908 132.96 62.8559C133.74 63.6183 135.648 63.3275 137.498 62.2455C139.733 64.257 141.602 65.525 141.99 65.227C142.375 64.9303 141.175 63.1729 139.177 61.0056C140.705 59.5932 141.315 58.0175 140.532 57.2523C139.752 56.49 137.844 56.7808 135.994 57.8629Z" fill="#DA3535"/>
<path fill-rule="evenodd" clip-rule="evenodd" d="M124.244 26.0163C122.009 24.0054 120.14 22.7379 119.753 23.0359C119.368 23.3325 120.567 25.0894 122.564 27.2562C121.037 28.6685 120.427 30.2441 121.21 31.0092C121.99 31.7715 123.898 31.4808 125.747 30.3989C127.983 32.4106 129.852 33.6788 130.24 33.3807C130.625 33.084 129.425 31.3265 127.427 29.159C128.955 27.7466 129.565 26.1708 128.782 25.4056C128.002 24.6432 126.093 24.9341 124.244 26.0163Z" fill="#DA3535"/>
</svg>
