<svg width="169" height="439" viewBox="0 0 169 439" fill="none" xmlns="http://www.w3.org/2000/svg">
<path d="M421.299 312.737C405.015 346.918 380.23 376.347 349.317 398.208C318.403 420.068 282.396 433.628 244.742 437.588C207.088 441.549 169.047 435.778 134.262 420.829C99.4764 405.879 69.1104 382.251 46.0708 352.206C23.0311 322.162 8.08902 286.706 2.6748 249.233C-2.73939 211.76 1.55554 173.525 15.1485 138.187C28.7414 102.85 51.1773 71.5926 80.3085 47.4081C109.44 23.2236 144.291 6.92131 181.526 0.0617552L191.825 55.9666C164.159 61.0634 138.264 73.1762 116.619 91.1456C94.9742 109.115 78.304 132.339 68.2043 158.596C58.1046 184.852 54.9134 213.261 58.9362 241.104C62.959 268.947 74.0612 295.291 91.18 317.615C108.299 339.938 130.861 357.494 156.707 368.602C182.553 379.71 210.818 383.997 238.795 381.055C266.773 378.112 293.526 368.037 316.496 351.794C339.465 335.552 357.88 313.685 369.979 288.288L421.299 312.737Z" fill="#F9F2F2" fill-opacity="0.65"/>
</svg>
