<svg width="76" height="76" viewBox="0 0 76 76" fill="none" xmlns="http://www.w3.org/2000/svg">
<path d="M37.94 7.21729C20.9429 7.21729 7.11377 21.0464 7.11377 38.0435C7.11377 55.0407 20.9429 68.8698 37.94 68.8698C54.9371 68.8698 68.7663 55.0407 68.7663 38.0435C68.7663 21.0464 54.9371 7.21729 37.94 7.21729ZM37.94 9.24979C52.3216 9.24979 66.7338 20.4285 66.7338 38.0435C66.7338 54.7552 52.3216 66.8373 37.94 66.8373C21.68 66.8373 9.14627 52.4252 9.14627 38.0435C9.14627 23.6619 20.325 9.24979 37.94 9.24979ZM30.8263 26.1873V52.271H35.5688V42.786H41.4969C46.0758 42.786 49.7963 39.0655 49.7963 34.4867C49.7963 29.9078 46.0758 26.1873 41.4969 26.1873H30.8263ZM35.5688 30.9298H41.4969C43.4579 30.9298 45.0538 32.5256 45.0538 34.4867C45.0538 36.4477 43.4579 38.0435 41.4969 38.0435H35.5688V30.9298Z" fill="#414141"/>
</svg>
