<svg width="132" height="83" viewBox="0 0 132 83" fill="none" xmlns="http://www.w3.org/2000/svg">
<path d="M50.8213 11.2562L44.1522 18.5315C28.6314 12.7112 19.4968 24.1902 16.8696 30.6572C13.9594 42.2977 20.5072 50.8665 24.1449 53.6958C28.9952 59.5161 40.7166 58.5461 45.971 57.3335L50.215 64.0026C48.7599 64.4876 45.1626 65.4172 43.5459 65.8214C43.5459 68.8528 43.3034 74.9156 42.3333 74.9156H30.814V65.8214C29.3589 65.8214 24.5491 63.3963 22.3261 62.1837L16.2633 67.034C13.3531 66.0639 9.39211 60.9712 7.77536 58.5461L12.6256 51.877C11.1705 50.9069 9.5942 46.2184 8.98792 43.9953L0.5 42.7828V30.6572H8.98792C8.98792 28.232 11.413 23.9881 12.6256 22.1692L7.77536 16.1064C8.74541 12.7113 13.8382 9.03317 16.2633 7.61852L22.3261 12.4688C25.7213 10.0436 29.3994 9.43735 30.814 9.43734V0.949417C35.1792 -0.505656 41.525 0.343137 44.1522 0.949417V9.43734L50.8213 11.2562Z" fill="#EA2929"/>
<path d="M31.8458 39.2246L28.9259 28.9414H28.838C28.8641 29.2083 28.8901 29.5697 28.9161 30.0254C28.9487 30.4811 28.978 30.9727 29.004 31.5C29.0301 32.0273 29.0431 32.5352 29.0431 33.0234V39.2246H25.6251V24.9473H30.7618L33.7404 35.084H33.8185L36.7384 24.9473H41.8849V39.2246H38.34V32.9648C38.34 32.5156 38.3465 32.0339 38.3595 31.5195C38.379 30.9987 38.3986 30.5104 38.4181 30.0547C38.4441 29.5924 38.4669 29.2279 38.4865 28.9609H38.3986L35.5177 39.2246H31.8458ZM53.4376 39.2246H44.9611V24.9473H53.4376V28.043H48.8185V30.2891H53.0958V33.3848H48.8185V36.0801H53.4376V39.2246ZM69.5314 39.2246H64.4728L59.2579 29.166H59.17C59.2026 29.472 59.2319 29.8398 59.2579 30.2695C59.284 30.6992 59.3068 31.1387 59.3263 31.5879C59.3458 32.0306 59.3556 32.431 59.3556 32.7891V39.2246H55.9376V24.9473H60.9767L66.172 34.8691H66.2306C66.2111 34.5566 66.1915 34.1953 66.172 33.7852C66.1525 33.3685 66.1329 32.9486 66.1134 32.5254C66.1004 32.1022 66.0939 31.7279 66.0939 31.4023V24.9473H69.5314V39.2246ZM78.9161 39.2246H75.0587V28.1016H71.5724V24.9473H82.3927V28.1016H78.9161V39.2246ZM97.7931 32.0664C97.7931 33.1667 97.6596 34.1693 97.3927 35.0742C97.1323 35.9727 96.7221 36.7474 96.1622 37.3984C95.6023 38.0495 94.8829 38.5508 94.004 38.9023C93.1251 39.2474 92.0737 39.4199 90.8497 39.4199C89.6518 39.4199 88.6134 39.2474 87.7345 38.9023C86.8621 38.5508 86.1427 38.0527 85.5763 37.4082C85.0099 36.7572 84.59 35.9792 84.3165 35.0742C84.0431 34.1693 83.9064 33.1602 83.9064 32.0469C83.9064 30.5625 84.1505 29.2734 84.6388 28.1797C85.1336 27.0794 85.8953 26.2298 86.924 25.6309C87.9526 25.0254 89.2677 24.7227 90.8693 24.7227C92.4969 24.7227 93.8185 25.0254 94.8341 25.6309C95.8562 26.2363 96.6049 27.0892 97.0802 28.1895C97.5555 29.2897 97.7931 30.582 97.7931 32.0664ZM87.9689 32.0664C87.9689 32.9258 88.0665 33.6647 88.2618 34.2832C88.4572 34.9017 88.7664 35.377 89.1896 35.709C89.6128 36.041 90.1661 36.207 90.8497 36.207C91.5594 36.207 92.1225 36.041 92.5392 35.709C92.9624 35.377 93.2651 34.9017 93.4474 34.2832C93.6362 33.6647 93.7306 32.9258 93.7306 32.0664C93.7306 30.7773 93.5157 29.7585 93.0861 29.0098C92.6564 28.2611 91.9174 27.8867 90.8693 27.8867C90.1726 27.8867 89.6095 28.056 89.1798 28.3945C88.7566 28.7331 88.4474 29.2148 88.2521 29.8398C88.0633 30.4648 87.9689 31.207 87.9689 32.0664ZM105.049 24.9473C106.345 24.9473 107.422 25.1068 108.281 25.4258C109.141 25.7383 109.785 26.207 110.215 26.832C110.651 27.457 110.869 28.235 110.869 29.166C110.869 29.7454 110.772 30.2728 110.576 30.748C110.381 31.2233 110.101 31.6497 109.736 32.0273C109.378 32.3984 108.949 32.724 108.447 33.0039L112.608 39.2246H108.233L105.205 34.0293H104.229V39.2246H100.371V24.9473H105.049ZM104.99 27.8672H104.229V31.1289H104.951C105.544 31.1289 106.029 30.9987 106.406 30.7383C106.784 30.4779 106.973 30.0124 106.973 29.3418C106.973 28.8796 106.817 28.5182 106.504 28.2578C106.192 27.9974 105.687 27.8672 104.99 27.8672Z" fill="black"/>
<path d="M72.5096 46.9189C72.0995 46.9189 71.7323 46.9932 71.4081 47.1416C71.0878 47.29 70.8163 47.5049 70.5936 47.7861C70.371 48.0635 70.201 48.4014 70.0839 48.7998C69.9667 49.1943 69.9081 49.6396 69.9081 50.1357C69.9081 50.7998 70.0018 51.3721 70.1893 51.8525C70.3768 52.3291 70.662 52.6963 71.0448 52.9541C71.4276 53.208 71.912 53.335 72.4979 53.335C72.8612 53.335 73.2147 53.2998 73.5585 53.2295C73.9022 53.1592 74.2577 53.0635 74.6249 52.9424V54.1377C74.2772 54.2744 73.9257 54.374 73.5702 54.4365C73.2147 54.499 72.8046 54.5303 72.3397 54.5303C71.4647 54.5303 70.7382 54.3486 70.16 53.9854C69.5858 53.6221 69.1561 53.1104 68.871 52.4502C68.5897 51.79 68.4491 51.0166 68.4491 50.1299C68.4491 49.4814 68.5389 48.8877 68.7186 48.3486C68.8983 47.8096 69.16 47.3447 69.5038 46.9541C69.8475 46.5596 70.2714 46.2568 70.7753 46.0459C71.2831 45.8311 71.8632 45.7236 72.5155 45.7236C72.9452 45.7236 73.3671 45.7725 73.7811 45.8701C74.1991 45.9639 74.5858 46.0986 74.9413 46.2744L74.4491 47.4346C74.1522 47.2939 73.8417 47.1729 73.5175 47.0713C73.1932 46.9697 72.8573 46.9189 72.5096 46.9189ZM87.0702 50.1182C87.0702 50.7783 86.9862 51.3799 86.8182 51.9229C86.6542 52.4619 86.4061 52.9268 86.0741 53.3174C85.7421 53.7041 85.326 54.0029 84.826 54.2139C84.326 54.4248 83.7401 54.5303 83.0682 54.5303C82.3846 54.5303 81.7909 54.4248 81.287 54.2139C80.787 54.0029 80.371 53.7021 80.0389 53.3115C79.7108 52.9209 79.4647 52.4541 79.3007 51.9111C79.1366 51.3682 79.0546 50.7666 79.0546 50.1064C79.0546 49.2236 79.1991 48.4541 79.4882 47.7979C79.7811 47.1377 80.2245 46.626 80.8182 46.2627C81.4159 45.8955 82.1698 45.7119 83.08 45.7119C83.9706 45.7119 84.7108 45.8936 85.3007 46.2568C85.8905 46.6201 86.3319 47.1318 86.6249 47.792C86.9218 48.4482 87.0702 49.2236 87.0702 50.1182ZM80.5311 50.1182C80.5311 50.7783 80.621 51.3506 80.8007 51.835C80.9803 52.3154 81.2557 52.6865 81.6268 52.9482C82.0018 53.2061 82.4823 53.335 83.0682 53.335C83.6581 53.335 84.1385 53.2061 84.5096 52.9482C84.8807 52.6865 85.1542 52.3154 85.33 51.835C85.5057 51.3506 85.5936 50.7783 85.5936 50.1182C85.5936 49.1143 85.3925 48.3291 84.9901 47.7627C84.5917 47.1924 83.955 46.9072 83.08 46.9072C82.494 46.9072 82.0116 47.0361 81.6327 47.2939C81.2577 47.5518 80.9803 47.9209 80.8007 48.4014C80.621 48.8779 80.5311 49.4502 80.5311 50.1182ZM98.8651 50.0479C98.8651 51.0127 98.6854 51.8193 98.326 52.4678C97.9667 53.1123 97.4452 53.5986 96.7616 53.9268C96.078 54.251 95.2538 54.4131 94.2889 54.4131H91.91V45.8467H94.5468C95.4335 45.8467 96.1991 46.0068 96.8436 46.3271C97.4882 46.6436 97.9862 47.1143 98.3378 47.7393C98.6893 48.3604 98.8651 49.1299 98.8651 50.0479ZM97.4003 50.0889C97.4003 49.3857 97.2889 48.8076 97.0663 48.3545C96.8475 47.9014 96.5233 47.5654 96.0936 47.3467C95.6678 47.124 95.1425 47.0127 94.5175 47.0127H93.3163V53.2354H94.3124C95.3475 53.2354 96.121 52.9717 96.6327 52.4443C97.1444 51.917 97.4003 51.1318 97.4003 50.0889ZM108.562 54.4131H103.711V45.8467H108.562V47.0303H105.117V49.3564H108.346V50.5342H105.117V53.2236H108.562V54.4131ZM115.822 45.8467C116.56 45.8467 117.17 45.9365 117.65 46.1162C118.135 46.2959 118.494 46.5693 118.728 46.9365C118.967 47.3037 119.086 47.7705 119.086 48.3369C119.086 48.7588 119.008 49.1182 118.851 49.415C118.695 49.7119 118.49 49.958 118.236 50.1533C117.982 50.3486 117.711 50.5049 117.422 50.6221L119.853 54.4131H118.266L116.197 50.9795H114.82V54.4131H113.414V45.8467H115.822ZM115.728 47.0186H114.82V49.8193H115.793C116.445 49.8193 116.918 49.6982 117.211 49.4561C117.508 49.2139 117.656 48.8564 117.656 48.3838C117.656 47.8877 117.498 47.5361 117.182 47.3291C116.869 47.1221 116.385 47.0186 115.728 47.0186Z" fill="black"/>
</svg>
